#!OML:ASF F:\VICON\USERDATA\INSTALL\rory3\rory3.ASF
:FULLY-SPECIFIED
:DEGREES
528
root -2.43832 17.8948 1.43838 175.697 -43.6493 -185.245
lowerback 19.7709 -0.380078 -4.77081
upperback 0.160439 -1.63 0.818985
thorax -10.8 -0.537396 4.10621
lowerneck -0.299746 -14.1393 -9.76556
upperneck 2.25851 -19.4134 11.7531
head 2.81716 -9.66656 4.19919
rclavicle 5.2827e-014 -4.21423e-014
rhumerus -13.2588 7.02451 -84.7523
rradius 51.2236
rwrist -3.38429
rhand -12.7155 11.2293
rfingers 7.12502
rthumb 13.3674 -18.3219
lclavicle 5.2827e-014 -4.21423e-014
lhumerus -33.9932 -11.8001 90.6078
lradius 71.2577
lwrist 7.3337
lhand -9.87411 -112.098
lfingers 7.12502
lthumb 16.1049 -861.449
rfemur -6.24034 14.2597 5.92122
rtibia 31.014
rfoot -13.0443 8.04697
rtoes 6.34374
lfemur 9.65084 -14.2395 -20.3445
ltibia 19.7317
lfoot -13.1588 -5.45238
ltoes -16.4669
529
root -2.4731 17.9015 1.51074 175.593 -43.164 -184.704
lowerback 19.5 -0.374198 -4.56291
upperback 0.22459 -1.55106 0.906014
thorax -10.5857 -0.517683 4.05096
lowerneck -0.647698 -14.0619 -9.46314
upperneck 2.20114 -19.2799 11.7504
head 2.81315 -9.58871 4.14693
rclavicle -8.19987e-016 8.34896e-015
rhumerus -13.8486 6.31687 -84.7366
rradius 50.4777
rwrist -3.19099
rhand -13.6274 10.9144
rfingers 7.12502
rthumb 12.4884 -18.6924
lclavicle -8.19987e-016 8.34896e-015
lhumerus -33.9278 -11.9684 90.4905
lradius 69.05
lwrist 8.98708
lhand -10.6804 -112.964
lfingers 7.12502
lthumb 15.3284 -862.376
rfemur -6.63717 14.9428 6.00049
rtibia 30.6
rfoot -12.2903 8.03691
rtoes 9.28617
lfemur 9.64101 -14.0674 -20.1792
ltibia 19.1263
lfoot -13.2042 -4.80774
ltoes -17.4684
530
root -2.48712 17.9349 1.52078 173.975 -41.6833 -181.627
lowerback 18.5112 -0.160669 -3.43505
upperback 0.429825 -0.8959 1.76959
thorax -9.86679 -0.268656 4.14627
lowerneck -1.03101 -14.0356 -10.1728
upperneck 2.18891 -19.2562 12.4996
head 3.01284 -9.56002 4.41905
rclavicle -3.86139e-014 1.86858e-014
rhumerus -14.7082 4.18292 -84.8065
rradius 49.9388
rwrist -1.93945
rhand -13.578 11.1086
rfingers 7.12502
rthumb 12.536 -18.4953
lclavicle -3.86139e-014 1.86858e-014
lhumerus -33.594 -11.6109 90.2288
lradius 66.5485
lwrist 9.43111
lhand -10.8091 -113.526
lfingers 7.12502
lthumb 15.2043 -862.947
rfemur -7.34808 17.6373 8.6056
rtibia 29.9253
rfoot -11.4624 6.74633
rtoes 13.4178
lfemur 9.41713 -13.3546 -17.5109
ltibia 18.8468
lfoot -13.5486 -4.41793
ltoes -17.0718
531
root -2.53176 17.9483 1.61562 174.794 -41.381 -182.287
lowerback 18.2332 -0.163037 -3.83504
upperback 0.483317 -0.987203 1.61414
thorax -9.63951 -0.304088 4.21887
lowerneck -1.01818 -14.0983 -9.80172
upperneck 1.55571 -19.2729 12.4284
head 2.78147 -9.57751 4.37517
rclavicle -2.85256e-014 2.26615e-014
rhumerus -15.0858 3.12428 -84.7265
rradius 48.6741
rwrist -2.2131
rhand -13.9993 11.1953
rfingers 7.12502
rthumb 12.1298 -18.4331
lclavicle -2.85256e-014 2.26615e-014
lhumerus -33.2601 -10.9266 89.7897
lradius 63.7803
lwrist 8.79979
lhand -10.6679 -113.573
lfingers 7.12502
lthumb 15.3404 -862.984
rfemur -7.81543 17.7934 7.45734
rtibia 29.3163
rfoot -10.5904 7.10917
rtoes 15.2726
lfemur 9.06806 -13.4077 -18.3683
ltibia 18.6766
lfoot -13.3915 -3.99016
ltoes -14.6516
532
root -2.57351 17.9614 1.70881 175.224 -40.7382 -182.364
lowerback 18.04 -0.110302 -3.8164
upperback 0.48511 -0.90859 1.57283
thorax -9.53785 -0.270862 4.13689
lowerneck -1.25703 -13.8206 -9.71386
upperneck 1.3304 -18.853 12.4521
head 2.70185 -9.36476 4.39911
rclavicle -3.48867e-014 3.97569e-015
rhumerus -15.5554 2.11284 -84.5871
rradius 47.4032
rwrist -2.33954
rhand -14.4849 10.9114
rfingers 7.12502
rthumb 11.6615 -18.7441
lclavicle -3.48867e-014 3.97569e-015
lhumerus -32.7923 -10.0868 89.4201
lradius 60.5233
lwrist 8.3262
lhand -10.5862 -113.496
lfingers 7.12502
lthumb 15.419 -862.901
rfemur -8.43536 17.7075 6.80834
rtibia 28.77
rfoot -9.71145 7.63907
rtoes 13.6323
lfemur 8.84904 -13.0539 -18.6801
ltibia 18.1953
lfoot -13.2236 -3.59518
ltoes -13.7702
533
root -2.61036 17.965 1.81421 175.314 -39.9136 -182.373
lowerback 18.3366 -0.00615094 -3.70146
upperback 0.522203 -0.767327 1.52762
thorax -9.679 -0.20915 3.99238
lowerneck -1.46274 -13.6911 -9.6164
upperneck 1.22378 -18.6418 12.3683
head 2.66314 -9.2549 4.37053
rclavicle 3.82412e-014 1.82882e-014
rhumerus -16.2422 0.8644 -84.4832
rradius 46.3867
rwrist -2.49327
rhand -14.9466 10.5647
rfingers 7.12502
rthumb 11.2162 -19.1155
lclavicle 3.82412e-014 1.82882e-014
lhumerus -32.3244 -9.3583 89.1496
lradius 57.3614
lwrist 8.66599
lhand -11.0378 -113.568
lfingers 7.12502
lthumb 14.984 -863.006
rfemur -8.95175 17.8745 6.34773
rtibia 28.5046
rfoot -8.91162 7.76986
rtoes 11.0789
lfemur 9.08261 -12.5562 -18.9608
ltibia 17.5226
lfoot -13.1141 -3.44453
ltoes -11.9423
534
root -2.64934 17.9843 1.86292 175.01 -41.7345 -182.154
lowerback 18.3396 -0.787104 -3.70412
upperback 0.749474 -1.80413 1.64196
thorax -9.3249 -0.72163 4.38111
lowerneck -1.62992 -13.6113 -9.70086
upperneck 1.0981 -18.5062 12.4356
head 2.65261 -9.18332 4.40473
rclavicle 1.01629e-013 1.78906e-014
rhumerus -16.8015 -0.151315 -84.3064
rradius 45.1768
rwrist -3.21139
rhand -15.4534 10.3015
rfingers 7.12502
rthumb 10.7274 -19.4046
lclavicle 1.01629e-013 1.78906e-014
lhumerus -32.2781 -8.63848 88.7873
lradius 54.8241
lwrist 8.84792
lhand -11.0306 -113.611
lfingers 7.12502
lthumb 14.991 -863.049
rfemur -7.723 17.5216 6.73765
rtibia 28.1402
rfoot -9.02283 5.78666
rtoes 10.6856
lfemur 9.2974 -13.3514 -18.6314
ltibia 16.9712
lfoot -12.7137 -5.20345
ltoes -5.98037
535
root -2.68855 17.9959 1.96135 175.343 -40.8251 -182.094
lowerback 18.2359 -0.63825 -3.60617
upperback 0.689171 -1.58016 1.63492
thorax -9.35862 -0.615341 4.2579
lowerneck -1.65659 -13.5386 -10.0025
upperneck 0.982392 -18.4021 12.6914
head 2.66422 -9.13148 4.5278
rclavicle -5.889e-015 6.36111e-015
rhumerus -17.4231 -1.26808 -83.986
rradius 43.6379
rwrist -3.48184
rhand -15.7423 9.90888
rfingers 7.12502
rthumb 10.4487 -19.8115
lclavicle -5.889e-015 6.36111e-015
lhumerus -32.4151 -8.18216 88.5016
lradius 52.403
lwrist 9.19105
lhand -10.8619 -113.798
lfingers 7.12502
lthumb 15.1535 -863.223
rfemur -8.54446 17.5246 6.28168
rtibia 27.7813
rfoot -8.09133 5.82676
rtoes 10.3881
lfemur 9.12177 -12.5636 -18.6996
ltibia 16.46
lfoot -12.3255 -5.27974
ltoes -3.15974
536
root -2.72067 18.0176 2.03633 175.382 -40.4738 -181.8
lowerback 18.2689 -0.66785 -3.52578
upperback 0.619967 -1.59879 1.66218
thorax -9.45292 -0.621854 4.24961
lowerneck -1.88136 -13.3236 -9.32668
upperneck 1.04619 -18.0815 12.1679
head 2.57259 -8.96741 4.30148
rclavicle 9.16149e-014 1.55052e-014
rhumerus -18.187 -2.61652 -83.6987
rradius 42.0427
rwrist -3.42448
rhand -16.2673 10.0877
rfingers 7.12502
rthumb 9.94229 -19.6575
lclavicle 9.16149e-014 1.55052e-014
lhumerus -32.4824 -7.52713 88.1492
lradius 49.7915
lwrist 9.73095
lhand -10.6638 -114.288
lfingers 7.12502
lthumb 15.3443 -863.699
rfemur -8.84761 17.721 6.24923
rtibia 27.4011
rfoot -7.61817 5.3935
rtoes 10.6629
lfemur 9.01171 -11.9353 -18.5146
ltibia 15.9524
lfoot -12.0501 -5.42684
ltoes -3.28848
537
root -2.754 18.0329 2.13097 175.581 -40.0199 -181.651
lowerback 18.3391 -0.698497 -3.41816
upperback 0.559886 -1.61865 1.64937
thorax -9.55985 -0.631338 4.18332
lowerneck -1.68473 -13.3216 -9.36995
upperneck 0.633757 -18.0543 12.2328
head 2.42579 -8.9673 4.35736
rclavicle -1.95554e-014 -1.43125e-014
rhumerus -18.8331 -3.89201 -83.4171
rradius 40.4714
rwrist -3.83104
rhand -18.6454 10.9281
rfingers 7.12502
rthumb 7.6474 -18.9136
lclavicle -1.95554e-014 -1.43125e-014
lhumerus -32.4599 -6.40575 87.5037
lradius 46.8322
lwrist 9.3723
lhand -10.8931 -114.648
lfingers 7.12502
lthumb 15.1235 -864.076
rfemur -9.40103 17.5535 5.90974
rtibia 27.0461
rfoot -6.68578 5.5312
rtoes 13.005
lfemur 8.68475 -11.6058 -18.5999
ltibia 15.7636
lfoot -11.9332 -5.16614
ltoes -2.80176
538
root -2.79288 18.0422 2.22173 176.092 -39.2856 -181.844
lowerback 18.1436 -0.594812 -3.59306
upperback 0.557568 -1.51198 1.62048
thorax -9.45967 -0.575269 4.2171
lowerneck -1.7113 -13.0839 -9.05741
upperneck 0.38118 -17.7011 12.0409
head 2.27258 -8.79699 4.29916
rclavicle 7.49915e-014 -3.57812e-015
rhumerus -19.2743 -4.86213 -82.9671
rradius 38.6988
rwrist -4.53659
rhand -16.7397 9.00735
rfingers 7.12502
rthumb 9.48646 -20.7591
lclavicle 7.49915e-014 -3.57812e-015
lhumerus -32.5214 -5.37237 86.9958
lradius 44.3124
lwrist 9.00681
lhand -11.1676 -114.785
lfingers 7.12502
lthumb 14.8591 -864.232
rfemur -10.1128 17.3697 5.25599
rtibia 26.6343
rfoot -5.66856 5.77441
rtoes 15.058
lfemur 8.37571 -11.4059 -19.0883
ltibia 15.5811
lfoot -11.9615 -4.45917
ltoes -2.46006
539
root -2.82574 18.0619 2.30033 176.596 -38.8482 -182.061
lowerback 18.0269 -0.603539 -3.84658
upperback 0.498516 -1.57321 1.56002
thorax -9.44908 -0.591587 4.30846
lowerneck -1.73257 -12.8649 -9.07197
upperneck 0.372899 -17.4108 12.1498
head 2.25551 -8.653 4.3542
rclavicle 6.61456e-014 3.97569e-016
rhumerus -19.855 -6.09141 -82.5056
rradius 36.8385
rwrist -4.64426
rhand -17.2983 9.04544
rfingers 7.12502
rthumb 8.9475 -20.7448
lclavicle 6.61456e-014 3.97569e-016
lhumerus -32.7616 -4.3558 86.4142
lradius 42.0938
lwrist 8.76271
lhand -12.1236 -114.518
lfingers 7.12502
lthumb 13.9379 -864.031
rfemur -10.5977 17.4364 4.77738
rtibia 26.2993
rfoot -5.30302 5.21431
rtoes 15.3115
lfemur 8.03504 -11.3761 -19.5904
ltibia 15.3512
lfoot -11.9268 -3.68906
ltoes -3.53505
